<?xml version="1.0" encoding="UTF-8" standalone="no"?>
<!-- Generator: Adobe Illustrator 19.0.0, SVG Export Plug-In . SVG Version: 6.00 Build 0)  -->

<svg
   version="1.1"
   id="Layer_1"
   x="0px"
   y="0px"
   viewBox="0 0 456.548 456.548"
   style="enable-background:new 0 0 456.548 456.548;"
   xml:space="preserve"
   sodipodi:docname="credit.svg"
   inkscape:version="1.1 (ce6663b3b7, 2021-05-25)"
   xmlns:inkscape="http://www.inkscape.org/namespaces/inkscape"
   xmlns:sodipodi="http://sodipodi.sourceforge.net/DTD/sodipodi-0.dtd"
   xmlns="http://www.w3.org/2000/svg"
   xmlns:svg="http://www.w3.org/2000/svg"><defs
   id="defs419" /><sodipodi:namedview
   id="namedview417"
   pagecolor="#505050"
   bordercolor="#eeeeee"
   borderopacity="1"
   inkscape:pageshadow="0"
   inkscape:pageopacity="0"
   inkscape:pagecheckerboard="0"
   showgrid="false"
   inkscape:zoom="0.67681821"
   inkscape:cx="-131.49764"
   inkscape:cy="228.274"
   inkscape:window-width="1302"
   inkscape:window-height="704"
   inkscape:window-x="1430"
   inkscape:window-y="27"
   inkscape:window-maximized="1"
   inkscape:current-layer="g383" />
<g
   id="XMLID_809_">
	<g
   id="g383"
   style="stroke:#5a816f;stroke-opacity:1">
		<g
   id="g381"
   style="fill:#5a816f;fill-opacity:1">
			<path
   d="M433.467,81.51H23.081C10.334,81.51,0,91.844,0,104.591v26.274h456.548v-26.274     C456.548,91.844,446.214,81.51,433.467,81.51z"
   id="path377"
   style="fill:#5a816f;fill-opacity:1" />
			<path
   d="M0,351.957c0,12.747,10.334,23.081,23.081,23.081h410.385c12.747,0,23.081-10.334,23.081-23.081V198.355H0V351.957z      M196.171,323.51h-29c-8.284,0-15-6.716-15-15s6.716-15,15-15h29c8.284,0,15,6.716,15,15S204.455,323.51,196.171,323.51z      M348.467,293.51h47c8.284,0,15,6.716,15,15s-6.716,15-15,15h-47c-8.284,0-15-6.716-15-15S340.183,293.51,348.467,293.51z      M303.171,308.51c0,8.284-6.716,15-15,15h-29c-8.284,0-15-6.716-15-15s6.716-15,15-15h29     C296.455,293.51,303.171,300.226,303.171,308.51z M58.874,236.51h224c8.284,0,15,6.716,15,15s-6.716,15-15,15h-224     c-8.284,0-15-6.716-15-15S50.59,236.51,58.874,236.51z M58.874,293.51h47c8.284,0,15,6.716,15,15s-6.715,15-15,15h-47     c-8.284,0-15-6.716-15-15S50.59,293.51,58.874,293.51z"
   id="path379"
   style="fill:#5a816f;fill-opacity:1" />
		</g>
	</g>
</g>
<g
   id="g386">
</g>
<g
   id="g388">
</g>
<g
   id="g390">
</g>
<g
   id="g392">
</g>
<g
   id="g394">
</g>
<g
   id="g396">
</g>
<g
   id="g398">
</g>
<g
   id="g400">
</g>
<g
   id="g402">
</g>
<g
   id="g404">
</g>
<g
   id="g406">
</g>
<g
   id="g408">
</g>
<g
   id="g410">
</g>
<g
   id="g412">
</g>
<g
   id="g414">
</g>
</svg>
